<?xml version="1.0" encoding="UTF-8"?>
<svg width="24px" height="24px" viewBox="0 0 24 24" version="1.1" xmlns="http://www.w3.org/2000/svg" xmlns:xlink="http://www.w3.org/1999/xlink">
    <title>material-symbols:cancel</title>
    <g id="Symbols" stroke="none" stroke-width="1" fill="none" fill-rule="evenodd">
        <g id="wallet/hover" transform="translate(-222.000000, -12.000000)">
            <g id="material-symbols:cancel" transform="translate(222.000000, 12.000000)">
                <rect id="ViewBox" x="0" y="0" width="24" height="24"></rect>
                <path d="M8.4,17 L12,13.4 L15.6,17 L17,15.6 L13.4,12 L17,8.4 L15.6,7 L12,10.6 L8.4,7 L7,8.4 L10.6,12 L7,15.6 L8.4,17 Z M12,22 C10.6166667,22 9.31666667,21.7373333 8.1,21.212 C6.88333333,20.6873333 5.825,19.975 4.925,19.075 C4.025,18.175 3.31266667,17.1166667 2.788,15.9 C2.26266667,14.6833333 2,13.3833333 2,12 C2,10.6166667 2.26266667,9.31666667 2.788,8.1 C3.31266667,6.88333333 4.025,5.825 4.925,4.925 C5.825,4.025 6.88333333,3.31233333 8.1,2.787 C9.31666667,2.26233333 10.6166667,2 12,2 C13.3833333,2 14.6833333,2.26233333 15.9,2.787 C17.1166667,3.31233333 18.175,4.025 19.075,4.925 C19.975,5.825 20.6873333,6.88333333 21.212,8.1 C21.7373333,9.31666667 22,10.6166667 22,12 C22,13.3833333 21.7373333,14.6833333 21.212,15.9 C20.6873333,17.1166667 19.975,18.175 19.075,19.075 C18.175,19.975 17.1166667,20.6873333 15.9,21.212 C14.6833333,21.7373333 13.3833333,22 12,22 Z" id="Shape" fill="#2F3344" fill-rule="nonzero"></path>
            </g>
        </g>
    </g>
</svg>