<?xml version="1.0" encoding="UTF-8"?>
<svg width="24px" height="24px" viewBox="0 0 24 24" version="1.1" xmlns="http://www.w3.org/2000/svg" xmlns:xlink="http://www.w3.org/1999/xlink">
    <title>akar-icons:github-fill</title>
    <g id="Page-1" stroke="none" stroke-width="1" fill="none" fill-rule="evenodd">
        <g id="Extra-Large-Copy-5" transform="translate(-1012.000000, -912.000000)">
            <g id="akar-icons:github-fill" transform="translate(1012.000000, 912.000000)">
                <rect id="ViewBox" x="0" y="0" width="24" height="24"></rect>
                <path d="M12,0 C5.37,0 0,5.37 0,12 C0,17.31 3.435,21.795 8.205,23.385 C8.805,23.49 9.03,23.13 9.03,22.815 C9.03,22.53 9.015,21.585 9.015,20.58 C6,21.135 5.22,19.845 4.98,19.17 C4.845,18.825 4.26,17.76 3.75,17.475 C3.33,17.25 2.73,16.695 3.735,16.68 C4.68,16.665 5.355,17.55 5.58,17.91 C6.66,19.725 8.385,19.215 9.075,18.9 C9.18,18.12 9.495,17.595 9.84,17.295 C7.17,16.995 4.38,15.96 4.38,11.37 C4.38,10.065 4.845,8.985 5.61,8.145 C5.49,7.845 5.07,6.615 5.73,4.965 C5.73,4.965 6.735,4.65 9.03,6.195 C9.99,5.925 11.01,5.79 12.03,5.79 C13.05,5.79 14.07,5.925 15.03,6.195 C17.325,4.635 18.33,4.965 18.33,4.965 C18.99,6.615 18.57,7.845 18.45,8.145 C19.215,8.985 19.68,10.05 19.68,11.37 C19.68,15.975 16.875,16.995 14.205,17.295 C14.64,17.67 15.015,18.39 15.015,19.515 C15.015,21.12 15,22.41 15,22.815 C15,23.13 15.225,23.505 15.825,23.385 C20.7095731,21.7358545 23.9985281,17.1554567 24,12 C24,5.37 18.63,0 12,0 L12,0 Z" id="Path" fill="#44465F"></path>
            </g>
        </g>
    </g>
</svg>