<?xml version="1.0" encoding="UTF-8"?>
<svg width="24px" height="24px" viewBox="0 0 24 24" version="1.1" xmlns="http://www.w3.org/2000/svg" xmlns:xlink="http://www.w3.org/1999/xlink">
    <title>mingcute:telegram-fill</title>
    <g id="Page-2" stroke="none" stroke-width="1" fill="none" fill-rule="evenodd">
        <g id="Extra-Large-Copy-7" transform="translate(-580.000000, -293.000000)">
            <g id="mingcute:telegram-fill" transform="translate(580.000000, 293.000000)">
                <rect id="ViewBox" x="0" y="0" width="24" height="24"></rect>
                <g id="Group">
                    <polygon id="Path" points="0 0 24 0 24 24 0 24"></polygon>
                    <path d="M19.777,4.43 C20.2802828,4.21817512 20.8589182,4.29657502 21.2876898,4.63468493 C21.7164614,4.97279484 21.9276282,5.51719722 21.839,6.056 L19.571,19.813 C19.351,21.14 17.895,21.901 16.678,21.24 C15.66,20.687 14.148,19.835 12.788,18.946 C12.108,18.501 10.025,17.076 10.281,16.062 C10.501,15.195 14.001,11.937 16.001,10 C16.786,9.239 16.428,8.8 15.501,9.5 C13.198,11.238 9.503,13.881 8.281,14.625 C7.203,15.281 6.641,15.393 5.969,15.281 C4.743,15.077 3.606,14.761 2.678,14.376 C1.424,13.856 1.485,12.132 2.677,11.63 L19.777,4.43 Z" id="Path" fill="#44465F" fill-rule="nonzero"></path>
                </g>
            </g>
        </g>
    </g>
</svg>