<?xml version="1.0" encoding="utf-8"?>
<!-- Generator: Adobe Illustrator 26.5.0, SVG Export Plug-In . SVG Version: 6.00 Build 0)  -->
<svg version="1.1" id="Layer_1" xmlns="http://www.w3.org/2000/svg" xmlns:xlink="http://www.w3.org/1999/xlink" x="0px" y="0px"
	 viewBox="0 0 200 60" style="enable-background:new 0 0 200 60;" xml:space="preserve">
<style type="text/css">
	.st0{fill-rule:evenodd;clip-rule:evenodd;fill:#2D56D9;}
	.st1{enable-background:new    ;}
	.st2{fill:#FFFFFF;}
</style>
<g>
	<g id="logo">
		<path id="Fill-1" class="st0" d="M96.9,32.6c-0.2,0.3-0.3,0.6-0.5,0.8c-0.1,0.1-0.2,0.3-0.2,0.4c-5.1,8.2-15.8,14.9-24.1,15
			c5-2.7,9.6-6.9,12.5-11.5c0.8-1.3,1.5-2.6,1.9-3.9c0,0,0,0,0,0h-2.2l0,0H71.8c-0.1-1.6,0.3-3.4,1.1-5.3c0.2-0.6,0.5-1.1,0.8-1.7
			c0.2-0.3,0.3-0.6,0.5-0.8c0.1-0.1,0.2-0.3,0.2-0.4c5.1-8.2,15.8-14.9,24.1-15c-5,2.7-9.6,6.9-12.5,11.5c-0.8,1.3-1.5,2.6-1.9,3.9
			c0,0,0,0,0,0h2.2l0,0h12.5c0.1,1.6-0.3,3.4-1.1,5.3C97.5,31.4,97.2,32,96.9,32.6"/>
	</g>
	<g class="st1">
		<path class="st2" d="M16.4,18.9l0,2.9H8.2v4.4h7.1V29H8.2v7.2H4.6V18.9H16.4z"/>
		<path class="st2" d="M26.2,36.5c-5.1,0-6.9-2.7-6.9-7V18.9h3.6v10.9c0,2.6,1.4,3.7,3.4,3.7c2,0,3.4-1.1,3.4-3.7V18.9h3.5v10.7
			C33.2,33.8,31.3,36.5,26.2,36.5z"/>
		<path class="st2" d="M36.6,18.9h11.9l0,3h-8.4V26h7.3v2.9h-7.3v4.3l8.5,0v3h-12V18.9z"/>
		<path class="st2" d="M55.5,18.9v14.4H63v3H52l0-17.3H55.5z"/>
		<path class="st2" d="M122.2,18.9v17.3h-3.2l-8.2-11.9v11.9h-3.5V18.9h3.5l7.9,11.5V18.9H122.2z"/>
		<path class="st2" d="M125.5,27.6c0-5.6,3.1-9,8-9c4.8,0,8,3.4,8,8.9c0,5.5-3.1,8.9-8,8.9C128.5,36.5,125.5,33.1,125.5,27.6z
			 M137.6,27.6c0-4.3-1.6-6.1-4.1-6.1s-4.2,1.8-4.2,6.1c0,4.2,1.7,5.9,4.2,5.9C136,33.6,137.6,31.9,137.6,27.6z"/>
		<path class="st2" d="M144.6,18.9h5.1l4,12.4l4-12.4h5.1v17.3h-3.5V23l-4.2,13.3h-2.7L148.2,23v13.2h-3.5V18.9z"/>
		<path class="st2" d="M166.6,18.9h11.9l0,3h-8.4V26h7.3v2.9h-7.3v4.3l8.5,0v3h-12V18.9z"/>
		<path class="st2" d="M196.8,18.9v17.3h-3.2l-8.2-11.9v11.9h-3.5V18.9h3.5l7.9,11.5V18.9H196.8z"/>
	</g>
</g>
</svg>
