<?xml version="1.0" encoding="UTF-8"?>
<svg width="24px" height="24px" viewBox="0 0 24 24" version="1.1" xmlns="http://www.w3.org/2000/svg" xmlns:xlink="http://www.w3.org/1999/xlink">
    <title>bi:medium</title>
    <g id="Page-1" stroke="none" stroke-width="1" fill="none" fill-rule="evenodd">
        <g id="Extra-Large-Copy-5" transform="translate(-948.000000, -912.000000)">
            <g id="bi:medium" transform="translate(948.000000, 912.000000)">
                <rect id="ViewBox" x="0" y="0" width="24" height="24"></rect>
                <path d="M13.5375,12.0000084 C13.5375,15.8655611 10.5075,19.0000084 6.768,19.0000084 C4.97540126,19.0024792 3.25527403,18.2663733 1.98602747,16.9536196 C0.71678092,15.640866 0.00238535988,13.8589989 0,12.0000084 C0,8.13290251 3.03,5.00000843 6.768,5.00000843 C8.56085843,4.99712693 10.2813711,5.73305046 11.5509422,7.04584882 C12.8205133,8.35864717 13.5351149,10.1407503 13.5375,12.0000084 Z M20.9625,12.0000096 C20.9625,15.6400057 19.4475,18.589336 17.5785,18.589336 C15.7095,18.589336 14.1945,15.6384502 14.1945,12.0000096 C14.1945,8.36001338 15.7095,5.41068315 17.5785,5.41068315 C19.4475,5.41068315 20.9625,8.36156893 20.9625,12.0000096 Z M24,12.0000096 C24,15.2604506 23.4675,17.9033367 22.809,17.9033367 C22.152,17.9033367 21.6195,15.258895 21.6195,12.0000096 C21.6195,8.73956854 22.152,6.09668242 22.8105,6.09668242 C23.4675,6.09668242 24,8.73956854 24,12.0000096 Z" id="Shape" fill="#44465F" fill-rule="nonzero"></path>
            </g>
        </g>
    </g>
</svg>