<?xml version="1.0" encoding="UTF-8"?>
<svg width="24px" height="24px" viewBox="0 0 24 24" version="1.1" xmlns="http://www.w3.org/2000/svg" xmlns:xlink="http://www.w3.org/1999/xlink">
    <title>akar-icons:twitter-fill</title>
    <g id="Page-1" stroke="none" stroke-width="1" fill="none" fill-rule="evenodd">
        <g id="Extra-Large-Copy-5" transform="translate(-894.000000, -912.000000)">
            <g id="akar-icons:twitter-fill" transform="translate(894.000000, 912.000000)">
                <rect id="ViewBox" x="0" y="0" width="24" height="24"></rect>
                <path d="M23.643,4.937 C22.808,5.307 21.911,5.557 20.968,5.67 C21.9410006,5.08779223 22.668943,4.17146627 23.016,3.092 C22.1018453,3.63498947 21.1013462,4.017195 20.058,4.222 C18.6153941,2.68169797 16.3177269,2.30314842 14.4572382,3.29925285 C12.5967495,4.29535727 11.6379164,6.41743493 12.12,8.472 C8.3739583,8.28391294 4.88383892,6.5145002 2.518,3.604 C2.118,4.294 1.888,5.094 1.888,5.946 C1.88709357,7.50372752 2.66458275,8.95889307 3.96,9.824 C3.22027631,9.80046249 2.496873,9.60058376 1.85,9.241 L1.85,9.301 C1.84984615,11.5189666 3.4129754,13.4296903 5.587,13.869 C4.90078354,14.0547149 4.18133757,14.0820703 3.483,13.949 C4.09292212,15.8466703 5.84205677,17.1464638 7.835,17.183 C6.18483309,18.478411 4.14688723,19.1810902 2.049,19.178 C1.67738105,19.1781015 1.30607629,19.1563975 0.937,19.113 C3.06647614,20.4821748 5.54534042,21.2088222 8.077,21.2060082 C16.647,21.2060082 21.332,14.108 21.332,7.952 C21.332,7.752 21.327,7.55 21.318,7.35 C22.2292915,6.69097444 23.0159103,5.87489555 23.641,4.94 L23.643,4.937 L23.643,4.937 Z" id="Path" fill="#44465F" fill-rule="nonzero"></path>
            </g>
        </g>
    </g>
</svg>